<svg width="64" height="46" viewBox="0 0 64 46" version="1.1" xmlns="http://www.w3.org/2000/svg" xmlns:xlink="http://www.w3.org/1999/xlink">
<title>Radio</title>
<desc>Created using Figma</desc>
<g id="Canvas" transform="translate(-1531 1965)">
<g id="Radio">
<g id="Atennas">
<g id="Ellipse">
<use xlink:href="#path0_fill" transform="translate(1568 -1954)" fill="#C4C4C4"/>
</g>
<g id="Ellipse">
<use xlink:href="#path1_fill" transform="translate(1562 -1965)" fill="#C4C4C4"/>
</g>
<g id="Ellipse">
<use xlink:href="#path1_fill" transform="translate(1589.5 -1965)" fill="#C4C4C4"/>
</g>
<g id="Line">
<use xlink:href="#path2_stroke" transform="matrix(-0.707107 -0.707107 0.707107 -0.707107 1576.5 -1951)" fill="#C4C4C4"/>
</g>
<g id="Line">
<use xlink:href="#path2_stroke" transform="matrix(0.707107 -0.707107 -0.707107 -0.707107 1577 -1951)" fill="#C4C4C4"/>
</g>
</g>
<g id="Body">
<use xlink:href="#path3_fill" transform="translate(1531 -1951)" fill="#302210"/>
<use xlink:href="#path3_fill" transform="translate(1531 -1951)" fill="url(#paint6_linear)"/>
</g>
<g id="Speaker">
<g id="Speaker">
<use xlink:href="#path4_fill" transform="translate(1535 -1933)" fill="#594020"/>
<mask id="mask0_outline_out">
<rect id="mask0_outline_inv" fill="white" x="-1" y="-1" width="24" height="13" transform="translate(1535 -1933)"/>
<use xlink:href="#path4_fill" fill="black" transform="translate(1535 -1933)"/>
</mask>
<g mask="url(#mask0_outline_out)">
<use xlink:href="#path5_stroke_2x" transform="translate(1535 -1933)" fill="#8C7D7D"/>
<use xlink:href="#path5_stroke_2x" transform="translate(1535 -1933)" fill="url(#paint9_linear)"/>
</g>
</g>
<mask id="mask1_alpha" mask-type="alpha">
<g id="Speaker">
<use xlink:href="#path4_fill" transform="translate(1535 -1933)" fill="#594020"/>
</g>
</mask>
<g id="Stripes 1" mask="url(#mask1_alpha)">
<g id="Line" mask="url(#mask1_alpha)">
<use xlink:href="#path6_stroke" transform="matrix(0.707107 -0.707107 0.707107 0.707107 1531 -1927)" fill="#E09A3F"/>
</g>
<g id="Line" mask="url(#mask1_alpha)">
<use xlink:href="#path6_stroke" transform="matrix(0.707107 -0.707107 0.707107 0.707107 1532 -1927)" fill="#E09A3F"/>
</g>
<g id="Line" mask="url(#mask1_alpha)">
<use xlink:href="#path6_stroke" transform="matrix(0.707107 -0.707107 0.707107 0.707107 1532 -1926)" fill="#E09A3F"/>
</g>
<g id="Line" mask="url(#mask1_alpha)">
<use xlink:href="#path6_stroke" transform="matrix(0.707107 -0.707107 0.707107 0.707107 1533 -1926)" fill="#E09A3F"/>
</g>
<g id="Line" mask="url(#mask1_alpha)">
<use xlink:href="#path6_stroke" transform="matrix(0.707107 -0.707107 0.707107 0.707107 1534 -1926)" fill="#E09A3F"/>
</g>
<g id="Line" mask="url(#mask1_alpha)">
<use xlink:href="#path6_stroke" transform="matrix(0.707107 -0.707107 0.707107 0.707107 1535 -1926)" fill="#E09A3F"/>
</g>
<g id="Line" mask="url(#mask1_alpha)">
<use xlink:href="#path6_stroke" transform="matrix(0.707107 -0.707107 0.707107 0.707107 1535 -1925)" fill="#E09A3F"/>
</g>
<g id="Line" mask="url(#mask1_alpha)">
<use xlink:href="#path6_stroke" transform="matrix(0.707107 -0.707107 0.707107 0.707107 1535 -1924)" fill="#E09A3F"/>
</g>
<g id="Line" mask="url(#mask1_alpha)">
<use xlink:href="#path6_stroke" transform="matrix(0.707107 -0.707107 0.707107 0.707107 1535 -1923)" fill="#E09A3F"/>
</g>
<g id="Line" mask="url(#mask1_alpha)">
<use xlink:href="#path7_stroke" transform="matrix(0.707107 -0.707107 0.707107 0.707107 1535 -1922)" fill="#E09A3F"/>
</g>
<g id="Line" mask="url(#mask1_alpha)">
<use xlink:href="#path7_stroke" transform="matrix(0.707107 -0.707107 0.707107 0.707107 1536 -1922)" fill="#E09A3F"/>
</g>
<g id="Line" mask="url(#mask1_alpha)">
<use xlink:href="#path7_stroke" transform="matrix(0.707107 -0.707107 0.707107 0.707107 1537 -1922)" fill="#E09A3F"/>
</g>
<g id="Line" mask="url(#mask1_alpha)">
<use xlink:href="#path7_stroke" transform="matrix(0.707107 -0.707107 0.707107 0.707107 1538 -1922)" fill="#E09A3F"/>
</g>
<g id="Line" mask="url(#mask1_alpha)">
<use xlink:href="#path7_stroke" transform="matrix(0.707107 -0.707107 0.707107 0.707107 1539 -1922)" fill="#E09A3F"/>
</g>
<g id="Line" mask="url(#mask1_alpha)">
<use xlink:href="#path7_stroke" transform="matrix(0.707107 -0.707107 0.707107 0.707107 1540 -1922)" fill="#E09A3F"/>
</g>
<g id="Line" mask="url(#mask1_alpha)">
<use xlink:href="#path7_stroke" transform="matrix(0.707107 -0.707107 0.707107 0.707107 1541 -1922)" fill="#E09A3F"/>
</g>
<g id="Line" mask="url(#mask1_alpha)">
<use xlink:href="#path7_stroke" transform="matrix(0.707107 -0.707107 0.707107 0.707107 1542 -1922)" fill="#E09A3F"/>
</g>
<g id="Line" mask="url(#mask1_alpha)">
<use xlink:href="#path7_stroke" transform="matrix(0.707107 -0.707107 0.707107 0.707107 1543 -1922)" fill="#E09A3F"/>
</g>
<g id="Line" mask="url(#mask1_alpha)">
<use xlink:href="#path7_stroke" transform="matrix(0.707107 -0.707107 0.707107 0.707107 1544 -1922)" fill="#E09A3F"/>
</g>
<g id="Line" mask="url(#mask1_alpha)">
<use xlink:href="#path7_stroke" transform="matrix(0.707107 -0.707107 0.707107 0.707107 1545 -1922)" fill="#E09A3F"/>
</g>
<g id="Line" mask="url(#mask1_alpha)">
<use xlink:href="#path7_stroke" transform="matrix(0.707107 -0.707107 0.707107 0.707107 1546 -1922)" fill="#E09A3F"/>
</g>
<g id="Line" mask="url(#mask1_alpha)">
<use xlink:href="#path7_stroke" transform="matrix(0.707107 -0.707107 0.707107 0.707107 1547 -1922)" fill="#E09A3F"/>
</g>
<g id="Line" mask="url(#mask1_alpha)">
<use xlink:href="#path7_stroke" transform="matrix(0.707107 -0.707107 0.707107 0.707107 1548 -1922)" fill="#E09A3F"/>
</g>
<g id="Line" mask="url(#mask1_alpha)">
<use xlink:href="#path7_stroke" transform="matrix(0.707107 -0.707107 0.707107 0.707107 1548 -1921)" fill="#E09A3F"/>
</g>
<g id="Line" mask="url(#mask1_alpha)">
<use xlink:href="#path7_stroke" transform="matrix(0.707107 -0.707107 0.707107 0.707107 1549 -1921)" fill="#E09A3F"/>
</g>
<g id="Line" mask="url(#mask1_alpha)">
<use xlink:href="#path7_stroke" transform="matrix(0.707107 -0.707107 0.707107 0.707107 1550 -1921)" fill="#E09A3F"/>
</g>
<g id="Line" mask="url(#mask1_alpha)">
<use xlink:href="#path7_stroke" transform="matrix(0.707107 -0.707107 0.707107 0.707107 1551 -1921)" fill="#E09A3F"/>
</g>
<g id="Line" mask="url(#mask1_alpha)">
<use xlink:href="#path7_stroke" transform="matrix(0.707107 -0.707107 0.707107 0.707107 1552 -1921)" fill="#E09A3F"/>
</g>
<g id="Line" mask="url(#mask1_alpha)">
<use xlink:href="#path7_stroke" transform="matrix(0.707107 -0.707107 0.707107 0.707107 1553 -1921)" fill="#E09A3F"/>
</g>
<g id="Line" mask="url(#mask1_alpha)">
<use xlink:href="#path7_stroke" transform="matrix(0.707107 -0.707107 0.707107 0.707107 1554 -1921)" fill="#E09A3F"/>
</g>
</g>
<g id="Stripes 2" mask="url(#mask1_alpha)">
<g id="Line">
<use xlink:href="#path6_stroke" transform="matrix(-0.707107 -0.707107 -0.707107 0.707107 1561 -1927)" fill="#E09A3F"/>
</g>
<g id="Line">
<use xlink:href="#path6_stroke" transform="matrix(-0.707107 -0.707107 -0.707107 0.707107 1560 -1927)" fill="#E09A3F"/>
</g>
<g id="Line">
<use xlink:href="#path6_stroke" transform="matrix(-0.707107 -0.707107 -0.707107 0.707107 1560 -1926)" fill="#E09A3F"/>
</g>
<g id="Line">
<use xlink:href="#path6_stroke" transform="matrix(-0.707107 -0.707107 -0.707107 0.707107 1559 -1926)" fill="#E09A3F"/>
</g>
<g id="Line">
<use xlink:href="#path6_stroke" transform="matrix(-0.707107 -0.707107 -0.707107 0.707107 1558 -1926)" fill="#E09A3F"/>
</g>
<g id="Line">
<use xlink:href="#path6_stroke" transform="matrix(-0.707107 -0.707107 -0.707107 0.707107 1557 -1926)" fill="#E09A3F"/>
</g>
<g id="Line">
<use xlink:href="#path6_stroke" transform="matrix(-0.707107 -0.707107 -0.707107 0.707107 1557 -1925)" fill="#E09A3F"/>
</g>
<g id="Line">
<use xlink:href="#path6_stroke" transform="matrix(-0.707107 -0.707107 -0.707107 0.707107 1557 -1924)" fill="#E09A3F"/>
</g>
<g id="Line">
<use xlink:href="#path6_stroke" transform="matrix(-0.707107 -0.707107 -0.707107 0.707107 1557 -1923)" fill="#E09A3F"/>
</g>
<g id="Line">
<use xlink:href="#path7_stroke" transform="matrix(-0.707107 -0.707107 -0.707107 0.707107 1557 -1922)" fill="#E09A3F"/>
</g>
<g id="Line">
<use xlink:href="#path7_stroke" transform="matrix(-0.707107 -0.707107 -0.707107 0.707107 1556 -1922)" fill="#E09A3F"/>
</g>
<g id="Line">
<use xlink:href="#path7_stroke" transform="matrix(-0.707107 -0.707107 -0.707107 0.707107 1555 -1922)" fill="#E09A3F"/>
</g>
<g id="Line">
<use xlink:href="#path7_stroke" transform="matrix(-0.707107 -0.707107 -0.707107 0.707107 1554 -1922)" fill="#E09A3F"/>
</g>
<g id="Line">
<use xlink:href="#path7_stroke" transform="matrix(-0.707107 -0.707107 -0.707107 0.707107 1553 -1922)" fill="#E09A3F"/>
</g>
<g id="Line">
<use xlink:href="#path7_stroke" transform="matrix(-0.707107 -0.707107 -0.707107 0.707107 1552 -1922)" fill="#E09A3F"/>
</g>
<g id="Line">
<use xlink:href="#path7_stroke" transform="matrix(-0.707107 -0.707107 -0.707107 0.707107 1551 -1922)" fill="#E09A3F"/>
</g>
<g id="Line">
<use xlink:href="#path7_stroke" transform="matrix(-0.707107 -0.707107 -0.707107 0.707107 1550 -1922)" fill="#E09A3F"/>
</g>
<g id="Line">
<use xlink:href="#path7_stroke" transform="matrix(-0.707107 -0.707107 -0.707107 0.707107 1549 -1922)" fill="#E09A3F"/>
</g>
<g id="Line">
<use xlink:href="#path7_stroke" transform="matrix(-0.707107 -0.707107 -0.707107 0.707107 1548 -1922)" fill="#E09A3F"/>
</g>
<g id="Line">
<use xlink:href="#path7_stroke" transform="matrix(-0.707107 -0.707107 -0.707107 0.707107 1547 -1922)" fill="#E09A3F"/>
</g>
<g id="Line">
<use xlink:href="#path7_stroke" transform="matrix(-0.707107 -0.707107 -0.707107 0.707107 1546 -1922)" fill="#E09A3F"/>
</g>
<g id="Line">
<use xlink:href="#path7_stroke" transform="matrix(-0.707107 -0.707107 -0.707107 0.707107 1545 -1922)" fill="#E09A3F"/>
</g>
<g id="Line">
<use xlink:href="#path7_stroke" transform="matrix(-0.707107 -0.707107 -0.707107 0.707107 1544 -1922)" fill="#E09A3F"/>
</g>
<g id="Line">
<use xlink:href="#path7_stroke" transform="matrix(-0.707107 -0.707107 -0.707107 0.707107 1544 -1921)" fill="#E09A3F"/>
</g>
<g id="Line">
<use xlink:href="#path7_stroke" transform="matrix(-0.707107 -0.707107 -0.707107 0.707107 1543 -1921)" fill="#E09A3F"/>
</g>
<g id="Line">
<use xlink:href="#path7_stroke" transform="matrix(-0.707107 -0.707107 -0.707107 0.707107 1542 -1921)" fill="#E09A3F"/>
</g>
<g id="Line">
<use xlink:href="#path7_stroke" transform="matrix(-0.707107 -0.707107 -0.707107 0.707107 1541 -1921)" fill="#E09A3F"/>
</g>
<g id="Line">
<use xlink:href="#path7_stroke" transform="matrix(-0.707107 -0.707107 -0.707107 0.707107 1540 -1921)" fill="#E09A3F"/>
</g>
<g id="Line">
<use xlink:href="#path7_stroke" transform="matrix(-0.707107 -0.707107 -0.707107 0.707107 1539 -1921)" fill="#E09A3F"/>
</g>
<g id="Line">
<use xlink:href="#path7_stroke" transform="matrix(-0.707107 -0.707107 -0.707107 0.707107 1538 -1921)" fill="#E09A3F"/>
</g>
</g>
</g>
<g id="Display">
<g id="Display">
<use xlink:href="#path8_fill" transform="translate(1534 -1948)" fill="#1F8787"/>
</g>
<g id="Text">
<g id="Radio">
<use xlink:href="#path9_fill" transform="translate(1535 -1947)" fill="#00FFF0"/>
<use xlink:href="#path10_fill" transform="translate(1535 -1947)" fill="#00FFF0"/>
<use xlink:href="#path11_fill" transform="translate(1535 -1947)" fill="#00FFF0"/>
<use xlink:href="#path12_fill" transform="translate(1535 -1947)" fill="#00FFF0"/>
<use xlink:href="#path13_fill" transform="translate(1535 -1947)" fill="#00FFF0"/>
<use xlink:href="#path14_stroke" transform="translate(1535 -1947)" fill="#00FFFF"/>
</g>
<g id="Line">
<use xlink:href="#path15_stroke" transform="translate(1536 -1939)" fill="#00FFFF"/>
</g>
</g>
</g>
<g id="Tuner">
<g id="Ellipse">
<use xlink:href="#path16_fill" transform="translate(1571 -1943)" fill="#8C7D7D"/>
</g>
<g id="Ellipse">
<use xlink:href="#path17_fill" transform="translate(1575 -1939)" fill="#403636"/>
</g>
<g id="Ellipse">
<use xlink:href="#path18_fill" transform="translate(1576 -1938)" fill="#D9C3C3"/>
</g>
<g id="Line">
<use xlink:href="#path19_stroke" transform="matrix(0.851719 -0.523999 0.523999 0.851719 1573.24 -1926.83)"/>
</g>
<g id="Line">
<use xlink:href="#path19_stroke" transform="matrix(0.851719 -0.523999 0.523999 0.851719 1587.72 -1935.74)"/>
</g>
<g id="Line">
<use xlink:href="#path19_stroke" transform="matrix(0.523999 0.851719 -0.851719 0.523999 1575.83 -1940.76)"/>
</g>
<g id="Line">
<use xlink:href="#path19_stroke" transform="matrix(0.231733 -0.972779 0.972779 0.231733 1579.89 -1922.71)"/>
</g>
<g id="Line">
<use xlink:href="#path19_stroke" transform="matrix(0.231733 -0.972779 0.972779 0.231733 1583.83 -1939.21)"/>
</g>
<g id="Line">
<use xlink:href="#path19_stroke" transform="matrix(0.972779 0.231733 -0.231733 0.972779 1588.15 -1930.28)"/>
</g>
<g id="Line">
<use xlink:href="#path19_stroke" transform="matrix(0.972779 0.231733 -0.231733 0.972779 1571.64 -1934.21)"/>
</g>
<g id="Line">
<use xlink:href="#path19_stroke" transform="matrix(0.523999 0.851719 -0.851719 0.523999 1584.74 -1926.28)"/>
</g>
</g>
<g id="Volume">
<g id="Ellipse">
<use xlink:href="#path20_fill" transform="translate(1568 -1948)" fill="#8C7D7D"/>
</g>
<g id="Ellipse">
<use xlink:href="#path21_fill" transform="translate(1569.33 -1946.67)" fill="#403636"/>
</g>
<g id="Ellipse">
<use xlink:href="#path22_fill" transform="translate(1569.67 -1946.33)" fill="#D9C3C3"/>
</g>
<g id="Line">
<use xlink:href="#path23_stroke" transform="matrix(0.851719 -0.523999 0.523999 0.851719 1568.75 -1942.61)"/>
</g>
<g id="Line">
<use xlink:href="#path23_stroke" transform="matrix(0.851719 -0.523999 0.523999 0.851719 1573.57 -1945.58)"/>
</g>
<g id="Line">
<use xlink:href="#path23_stroke" transform="matrix(0.523999 0.851719 -0.851719 0.523999 1569.61 -1947.25)"/>
</g>
<g id="Line">
<use xlink:href="#path23_stroke" transform="matrix(0.231733 -0.972779 0.972779 0.231733 1570.96 -1941.24)"/>
</g>
<g id="Line">
<use xlink:href="#path23_stroke" transform="matrix(0.231733 -0.972779 0.972779 0.231733 1572.28 -1946.74)"/>
</g>
<g id="Line">
<use xlink:href="#path23_stroke" transform="matrix(0.972779 0.231733 -0.231733 0.972779 1573.72 -1943.76)"/>
</g>
<g id="Line">
<use xlink:href="#path23_stroke" transform="matrix(0.972779 0.231733 -0.231733 0.972779 1568.21 -1945.07)"/>
</g>
<g id="Line">
<use xlink:href="#path23_stroke" transform="matrix(0.523999 0.851719 -0.851719 0.523999 1572.58 -1942.43)"/>
</g>
</g>
</g>
</g>
<defs>
<linearGradient id="paint6_linear" x1="0" y1="0" x2="1" y2="0" gradientUnits="userSpaceOnUse" gradientTransform="matrix(-64 8.5 -17 -128 72.5 80)">
<stop offset="0" stop-color="#FFFFFF" stop-opacity="0.1"/>
<stop offset="1" stop-color="#FFFFFF" stop-opacity="0"/>
</linearGradient>
<linearGradient id="paint9_linear" x1="0" y1="0" x2="1" y2="0" gradientUnits="userSpaceOnUse" gradientTransform="matrix(1.34711e-15 11 -22 6.73556e-16 22 -6.73556e-16)">
<stop offset="0.558011" stop-color="#CFCFCF"/>
<stop offset="1" stop-color="#FFFFFF" stop-opacity="0"/>
</linearGradient>
<path id="path0_fill" d="M 17 8.5C 17 13.1944 13.1944 17 8.5 17C 3.80558 17 0 13.1944 0 8.5C 0 3.80558 3.80558 0 8.5 0C 13.1944 0 17 3.80558 17 8.5Z"/>
<path id="path1_fill" d="M 2 1C 2 1.55228 1.55228 2 1 2C 0.447715 2 0 1.55228 0 1C 0 0.447715 0.447715 0 1 0C 1.55228 0 2 0.447715 2 1Z"/>
<path id="path2_stroke" d="M 0 0L 18.3848 0L 18.3848 -1L 0 -1L 0 0Z"/>
<path id="path3_fill" d="M 0 5C 0 2.23858 2.23858 0 5 0L 59 0C 61.7614 0 64 2.23858 64 5L 64 27C 64 29.7614 61.7614 32 59 32L 5 32C 2.23858 32 0 29.7614 0 27L 0 5Z"/>
<path id="path4_fill" d="M 0 2C 0 0.895431 0.895431 0 2 0L 20 0C 21.1046 0 22 0.895431 22 2L 22 9C 22 10.1046 21.1046 11 20 11L 2 11C 0.895431 11 0 10.1046 0 9L 0 2Z"/>
<path id="path5_stroke_2x" d="M 2 0.3L 20 0.3L 20 -0.3L 2 -0.3L 2 0.3ZM 21.7 2L 21.7 9L 22.3 9L 22.3 2L 21.7 2ZM 20 10.7L 2 10.7L 2 11.3L 20 11.3L 20 10.7ZM 0.3 9L 0.3 2L -0.3 2L -0.3 9L 0.3 9ZM 2 10.7C 1.06112 10.7 0.3 9.93888 0.3 9L -0.3 9C -0.3 10.2703 0.729745 11.3 2 11.3L 2 10.7ZM 21.7 9C 21.7 9.93888 20.9389 10.7 20 10.7L 20 11.3C 21.2703 11.3 22.3 10.2703 22.3 9L 21.7 9ZM 20 0.3C 20.9389 0.3 21.7 1.06112 21.7 2L 22.3 2C 22.3 0.729745 21.2703 -0.3 20 -0.3L 20 0.3ZM 2 -0.3C 0.729745 -0.3 -0.3 0.729745 -0.3 2L 0.3 2C 0.3 1.06112 1.06112 0.3 2 0.3L 2 -0.3Z"/>
<path id="path6_stroke" d="M 0 0L 14.1421 0L 14.1421 -0.1L 0 -0.1L 0 0Z"/>
<path id="path7_stroke" d="M 0 0L 15.5563 0L 15.5563 -0.1L 0 -0.1L 0 0Z"/>
<path id="path8_fill" d="M 0 2C 0 0.895431 0.895431 0 2 0L 27 0C 28.1046 0 29 0.895431 29 2L 29 9C 29 10.1046 28.1046 11 27 11L 2 11C 0.895431 11 0 10.1046 0 9L 0 2Z"/>
<path id="path9_fill" d="M 1.02637 2.91353L 1.02637 4.56015L 1.65517 4.56015C 1.73901 4.56015 1.79851 4.57519 1.83367 4.60526C 1.86883 4.63283 1.88641 4.67043 1.88641 4.71805C 1.88641 4.76316 1.86883 4.80075 1.83367 4.83083C 1.79851 4.8609 1.73901 4.87594 1.65517 4.87594L 0.227181 4.87594C 0.146045 4.87594 0.0878972 4.8609 0.0527383 4.83083C 0.0175794 4.80075 0 4.76316 0 4.71805C 0 4.67043 0.0175794 4.63283 0.0527383 4.60526C 0.0878972 4.57519 0.146045 4.56015 0.227181 4.56015L 0.685598 4.56015L 0.685598 0.793233L 0.227181 0.793233C 0.146045 0.793233 0.0878972 0.779449 0.0527383 0.75188C 0.0175794 0.721805 0 0.682957 0 0.635338C 0 0.587719 0.0175794 0.550125 0.0527383 0.522556C 0.0878972 0.492481 0.146045 0.477444 0.227181 0.477444L 2.28803 0.477444C 2.71264 0.477444 3.06964 0.602757 3.35903 0.853383C 3.65112 1.1015 3.79716 1.38221 3.79716 1.69549C 3.79716 1.92105 3.70656 2.13409 3.52535 2.33459C 3.34686 2.53258 3.04665 2.69799 2.62475 2.83083C 2.86815 2.98622 3.0764 3.16165 3.24949 3.35714C 3.42258 3.55263 3.6998 3.95363 4.08114 4.56015L 4.34077 4.56015C 4.42191 4.56015 4.48005 4.57519 4.51521 4.60526C 4.55037 4.63283 4.56795 4.67043 4.56795 4.71805C 4.56795 4.76316 4.55037 4.80075 4.51521 4.83083C 4.48005 4.8609 4.42191 4.87594 4.34077 4.87594L 3.88641 4.87594C 3.4645 4.17669 3.13725 3.70802 2.90467 3.46992C 2.67478 3.23183 2.40974 3.04637 2.10953 2.91353L 1.02637 2.91353ZM 1.02637 2.59774L 1.95538 2.59774C 2.25287 2.59774 2.52197 2.54762 2.76268 2.44737C 3.00609 2.34712 3.18188 2.22932 3.29006 2.09398C 3.40095 1.95865 3.45639 1.8208 3.45639 1.68045C 3.45639 1.46992 3.34145 1.26942 3.11156 1.07895C 2.88438 0.888471 2.60717 0.793233 2.27992 0.793233L 1.02637 0.793233L 1.02637 2.59774Z"/>
<path id="path10_fill" d="M 8.10548 4.87594L 8.10548 4.42105C 7.61055 4.80702 7.08181 5 6.51927 5C 6.11089 5 5.79175 4.90476 5.56187 4.71429C 5.33198 4.5213 5.21704 4.28571 5.21704 4.00752C 5.21704 3.70175 5.36849 3.43484 5.6714 3.20677C 5.97431 2.9787 6.4165 2.86466 6.99797 2.86466C 7.15483 2.86466 7.32522 2.87469 7.50913 2.89474C 7.69304 2.91228 7.89182 2.9411 8.10548 2.9812L 8.10548 2.46992C 8.10548 2.29699 8.01893 2.14662 7.84584 2.0188C 7.67275 1.89098 7.41312 1.82707 7.06694 1.82707C 6.80189 1.82707 6.43002 1.8985 5.95132 2.04135C 5.86477 2.06642 5.80933 2.07895 5.78499 2.07895C 5.74172 2.07895 5.70385 2.06391 5.6714 2.03383C 5.64165 2.00376 5.62677 1.96617 5.62677 1.92105C 5.62677 1.87845 5.6403 1.84461 5.66734 1.81955C 5.70521 1.78195 5.85801 1.73058 6.12576 1.66541C 6.54767 1.56015 6.8668 1.50752 7.08316 1.50752C 7.51318 1.50752 7.84855 1.60652 8.08925 1.80451C 8.32995 2 8.4503 2.2218 8.4503 2.46992L 8.4503 4.56015L 8.90467 4.56015C 8.98851 4.56015 9.04801 4.57519 9.08316 4.60526C 9.11832 4.63283 9.1359 4.67043 9.1359 4.71805C 9.1359 4.76316 9.11832 4.80075 9.08316 4.83083C 9.04801 4.8609 8.98851 4.87594 8.90467 4.87594L 8.10548 4.87594ZM 8.10548 3.30451C 7.94591 3.2619 7.77688 3.23058 7.59838 3.21053C 7.41988 3.19048 7.23191 3.18045 7.03448 3.18045C 6.53955 3.18045 6.15281 3.27945 5.87424 3.47744C 5.66329 3.62531 5.55781 3.80201 5.55781 4.00752C 5.55781 4.19799 5.63759 4.3584 5.79716 4.48872C 5.95943 4.61905 6.19473 4.68421 6.50304 4.68421C 6.79784 4.68421 7.07099 4.63033 7.32252 4.52256C 7.57674 4.41228 7.83773 4.2381 8.10548 4L 8.10548 3.30451Z"/>
<path id="path11_fill" d="M 13.785 0.157895L 13.785 4.56015L 14.2394 4.56015C 14.3232 4.56015 14.3827 4.57519 14.4178 4.60526C 14.453 4.63283 14.4706 4.67043 14.4706 4.71805C 14.4706 4.76316 14.453 4.80075 14.4178 4.83083C 14.3827 4.8609 14.3232 4.87594 14.2394 4.87594L 13.4402 4.87594L 13.4402 4.24812C 13.0453 4.74937 12.5436 5 11.9351 5C 11.6268 5 11.3306 4.92481 11.0467 4.77444C 10.7654 4.62155 10.5423 4.40476 10.3773 4.12406C 10.215 3.84336 10.1339 3.55388 10.1339 3.25564C 10.1339 2.95489 10.215 2.66541 10.3773 2.38722C 10.5423 2.10652 10.7654 1.88972 11.0467 1.73684C 11.3306 1.58396 11.6281 1.50752 11.9391 1.50752C 12.5341 1.50752 13.0345 1.75815 13.4402 2.2594L 13.4402 0.477444L 12.9858 0.477444C 12.902 0.477444 12.8425 0.462406 12.8073 0.432331C 12.7721 0.402256 12.7546 0.363409 12.7546 0.315789C 12.7546 0.270677 12.7721 0.233083 12.8073 0.203008C 12.8425 0.172932 12.902 0.157895 12.9858 0.157895L 13.785 0.157895ZM 13.4402 3.25564C 13.4402 2.85464 13.2941 2.51629 13.002 2.2406C 12.7099 1.96491 12.3624 1.82707 11.9594 1.82707C 11.5538 1.82707 11.2049 1.96491 10.9128 2.2406C 10.6207 2.51629 10.4746 2.85464 10.4746 3.25564C 10.4746 3.65414 10.6207 3.99248 10.9128 4.27068C 11.2049 4.54637 11.5538 4.68421 11.9594 4.68421C 12.3624 4.68421 12.7099 4.54637 13.002 4.27068C 13.2941 3.99248 13.4402 3.65414 13.4402 3.25564Z"/>
<path id="path12_fill" d="M 17.2738 0L 17.2738 0.815789L 16.7708 0.815789L 16.7708 0L 17.2738 0ZM 17.286 1.6203L 17.286 4.56015L 18.6247 4.56015C 18.7086 4.56015 18.7681 4.57519 18.8032 4.60526C 18.8384 4.63283 18.856 4.67043 18.856 4.71805C 18.856 4.76316 18.8384 4.80075 18.8032 4.83083C 18.7681 4.8609 18.7086 4.87594 18.6247 4.87594L 15.6065 4.87594C 15.5254 4.87594 15.4672 4.8609 15.432 4.83083C 15.3969 4.80075 15.3793 4.76316 15.3793 4.71805C 15.3793 4.67043 15.3969 4.63283 15.432 4.60526C 15.4672 4.57519 15.5254 4.56015 15.6065 4.56015L 16.9452 4.56015L 16.9452 1.93985L 15.9513 1.93985C 15.8702 1.93985 15.8107 1.92481 15.7728 1.89474C 15.7377 1.86466 15.7201 1.82707 15.7201 1.78195C 15.7201 1.73434 15.7377 1.69549 15.7728 1.66541C 15.808 1.63534 15.8675 1.6203 15.9513 1.6203L 17.286 1.6203Z"/>
<path id="path13_fill" d="M 24 3.25564C 24 3.73684 23.8134 4.14787 23.4402 4.48872C 23.0696 4.82957 22.622 5 22.0974 5C 21.5673 5 21.117 4.82957 20.7465 4.48872C 20.3759 4.14536 20.1907 3.73434 20.1907 3.25564C 20.1907 2.77444 20.3759 2.36341 20.7465 2.02256C 21.117 1.6792 21.5673 1.50752 22.0974 1.50752C 22.622 1.50752 23.0696 1.67794 23.4402 2.0188C 23.8134 2.35965 24 2.77193 24 3.25564ZM 23.6552 3.25564C 23.6552 2.85965 23.5024 2.52256 23.1968 2.24436C 22.8938 1.96617 22.526 1.82707 22.0933 1.82707C 21.6606 1.82707 21.2914 1.96742 20.9858 2.24812C 20.6829 2.52632 20.5314 2.86216 20.5314 3.25564C 20.5314 3.64662 20.6829 3.98246 20.9858 4.26316C 21.2914 4.54386 21.6606 4.68421 22.0933 4.68421C 22.526 4.68421 22.8938 4.54511 23.1968 4.26692C 23.5024 3.98622 23.6552 3.64912 23.6552 3.25564Z"/>
<path id="path14_stroke" d="M 1.02637 2.91353L 1.02637 2.66353L 0.776369 2.66353L 0.776369 2.91353L 1.02637 2.91353ZM 1.02637 4.56015L 0.776369 4.56015L 0.776369 4.81015L 1.02637 4.81015L 1.02637 4.56015ZM 1.83367 4.60526L 1.67102 4.79541L 1.67941 4.80199L 1.83367 4.60526ZM 0.0527383 4.60526L 0.207141 4.80217L 0.215246 4.79524L 0.0527383 4.60526ZM 0.685598 4.56015L 0.685598 4.81015L 0.935598 4.81015L 0.935598 4.56015L 0.685598 4.56015ZM 0.685598 0.793233L 0.935598 0.793233L 0.935598 0.543233L 0.685598 0.543233L 0.685598 0.793233ZM 0.0527383 0.75188L -0.109917 0.942029L -0.101524 0.948611L 0.0527383 0.75188ZM 0.0527383 0.522556L 0.207141 0.719467L 0.215246 0.712533L 0.0527383 0.522556ZM 3.35903 0.853383L 3.19535 1.04237L 3.19717 1.04392L 3.35903 0.853383ZM 3.52535 2.33459L 3.33988 2.16696L 3.33967 2.16719L 3.52535 2.33459ZM 2.62475 2.83083L 2.54967 2.59237L 2.03863 2.75326L 2.49022 3.04155L 2.62475 2.83083ZM 4.08114 4.56015L 3.86949 4.69322L 3.94301 4.81015L 4.08114 4.81015L 4.08114 4.56015ZM 4.51521 4.60526L 4.35256 4.79541L 4.36095 4.80199L 4.51521 4.60526ZM 3.88641 4.87594L 3.67236 5.00509L 3.74527 5.12594L 3.88641 5.12594L 3.88641 4.87594ZM 2.90467 3.46992L 2.72481 3.64358L 2.72583 3.64462L 2.90467 3.46992ZM 2.10953 2.91353L 2.21069 2.68491L 2.16237 2.66353L 2.10953 2.66353L 2.10953 2.91353ZM 1.02637 2.59774L 0.776369 2.59774L 0.776369 2.84774L 1.02637 2.84774L 1.02637 2.59774ZM 2.76268 2.44737L 2.66747 2.21621L 2.66656 2.21658L 2.76268 2.44737ZM 3.29006 2.09398L 3.09667 1.93553L 3.09478 1.93789L 3.29006 2.09398ZM 3.11156 1.07895L 2.95094 1.27052L 2.95206 1.27145L 3.11156 1.07895ZM 1.02637 0.793233L 1.02637 0.543233L 0.776369 0.543233L 0.776369 0.793233L 1.02637 0.793233ZM 8.10548 4.87594L 7.85548 4.87594L 7.85548 5.12594L 8.10548 5.12594L 8.10548 4.87594ZM 8.10548 4.42105L 8.35548 4.42105L 8.35548 3.90906L 7.95174 4.22391L 8.10548 4.42105ZM 5.56187 4.71429L 5.40112 4.90577L 5.40236 4.90679L 5.56187 4.71429ZM 7.50913 2.89474L 7.48203 3.14329L 7.48539 3.14361L 7.50913 2.89474ZM 8.10548 2.9812L 8.05936 3.22691L 8.35548 3.28249L 8.35548 2.9812L 8.10548 2.9812ZM 7.84584 2.0188L 7.99435 1.81769L 7.84584 2.0188ZM 5.95132 2.04135L 6.02086 2.28149L 6.02281 2.28091L 5.95132 2.04135ZM 5.6714 2.03383L 5.4935 2.20981L 5.50147 2.2172L 5.6714 2.03383ZM 5.66734 1.81955L 5.83737 2.00303L 5.84349 1.99696L 5.66734 1.81955ZM 6.12576 1.66541L 6.18488 1.90833L 6.18628 1.90798L 6.12576 1.66541ZM 8.08925 1.80451L 7.93043 1.99759L 7.93164 1.99857L 8.08925 1.80451ZM 8.4503 4.56015L 8.2003 4.56015L 8.2003 4.81015L 8.4503 4.81015L 8.4503 4.56015ZM 9.08316 4.60526L 8.92051 4.79541L 8.9289 4.80199L 9.08316 4.60526ZM 8.10548 3.30451L 8.35548 3.30451L 8.35548 3.11251L 8.16997 3.06297L 8.10548 3.30451ZM 5.87424 3.47744L 6.01774 3.68216L 6.01907 3.68122L 5.87424 3.47744ZM 5.79716 4.48872L 5.63901 4.68235L 5.64061 4.68364L 5.79716 4.48872ZM 7.32252 4.52256L 7.42098 4.75235L 7.422 4.75191L 7.32252 4.52256ZM 8.10548 4L 8.27161 4.18682L 8.35548 4.11224L 8.35548 4L 8.10548 4ZM 13.785 0.157895L 14.035 0.157895L 14.035 -0.0921053L 13.785 -0.0921053L 13.785 0.157895ZM 13.785 4.56015L 13.535 4.56015L 13.535 4.81015L 13.785 4.81015L 13.785 4.56015ZM 14.4178 4.60526L 14.2552 4.79541L 14.2636 4.80199L 14.4178 4.60526ZM 13.4402 4.87594L 13.1902 4.87594L 13.1902 5.12594L 13.4402 5.12594L 13.4402 4.87594ZM 13.4402 4.24812L 13.6902 4.24812L 13.6902 3.52676L 13.2438 4.09342L 13.4402 4.24812ZM 11.0467 4.77444L 10.9273 4.9941L 10.9297 4.99537L 11.0467 4.77444ZM 10.3773 4.12406L 10.1608 4.24918L 10.1618 4.25073L 10.3773 4.12406ZM 10.3773 2.38722L 10.1617 2.26054L 10.1613 2.26126L 10.3773 2.38722ZM 11.0467 1.73684L 10.9281 1.51671L 10.9273 1.51719L 11.0467 1.73684ZM 13.4402 2.2594L 13.2458 2.41668L 13.6902 2.96568L 13.6902 2.2594L 13.4402 2.2594ZM 13.4402 0.477444L 13.6902 0.477444L 13.6902 0.227444L 13.4402 0.227444L 13.4402 0.477444ZM 13.002 2.2406L 12.8304 2.42241L 13.002 2.2406ZM 10.9128 4.27068L 10.7404 4.45171L 10.7412 4.45248L 10.9128 4.27068ZM 13.002 4.27068L 13.1736 4.45249L 13.1744 4.45171L 13.002 4.27068ZM 17.2738 0L 17.5238 0L 17.5238 -0.25L 17.2738 -0.25L 17.2738 0ZM 17.2738 0.815789L 17.2738 1.06579L 17.5238 1.06579L 17.5238 0.815789L 17.2738 0.815789ZM 16.7708 0.815789L 16.5208 0.815789L 16.5208 1.06579L 16.7708 1.06579L 16.7708 0.815789ZM 16.7708 0L 16.7708 -0.25L 16.5208 -0.25L 16.5208 0L 16.7708 0ZM 17.286 1.6203L 17.536 1.6203L 17.536 1.3703L 17.286 1.3703L 17.286 1.6203ZM 17.286 4.56015L 17.036 4.56015L 17.036 4.81015L 17.286 4.81015L 17.286 4.56015ZM 18.8032 4.60526L 18.6406 4.79541L 18.649 4.80199L 18.8032 4.60526ZM 15.432 4.60526L 15.5865 4.80217L 15.5946 4.79524L 15.432 4.60526ZM 16.9452 4.56015L 16.9452 4.81015L 17.1952 4.81015L 17.1952 4.56015L 16.9452 4.56015ZM 16.9452 1.93985L 17.1952 1.93985L 17.1952 1.68985L 16.9452 1.68985L 16.9452 1.93985ZM 15.7728 1.89474L 15.6102 2.08484L 15.6173 2.0905L 15.7728 1.89474ZM 23.4402 4.48872L 23.2716 4.30412L 23.2709 4.30473L 23.4402 4.48872ZM 20.7465 4.48872L 20.5765 4.67209L 20.5772 4.67271L 20.7465 4.48872ZM 20.7465 2.02256L 20.9157 2.20655L 20.9164 2.20593L 20.7465 2.02256ZM 23.4402 2.0188L 23.2709 2.20279L 23.2716 2.2034L 23.4402 2.0188ZM 23.1968 2.24436L 23.0276 2.42849L 23.0285 2.42924L 23.1968 2.24436ZM 20.9858 2.24812L 21.1549 2.43225L 21.1549 2.43224L 20.9858 2.24812ZM 20.9858 4.26316L 20.8159 4.44653L 20.8167 4.44728L 20.9858 4.26316ZM 23.1968 4.26692L 23.3659 4.45105L 23.3659 4.45104L 23.1968 4.26692ZM 0.776369 2.91353L 0.776369 4.56015L 1.27637 4.56015L 1.27637 2.91353L 0.776369 2.91353ZM 1.02637 4.81015L 1.65517 4.81015L 1.65517 4.31015L 1.02637 4.31015L 1.02637 4.81015ZM 1.65517 4.81015C 1.66879 4.81015 1.67941 4.81077 1.6874 4.81161C 1.69545 4.81245 1.69989 4.81342 1.70142 4.81381C 1.7055 4.81484 1.69079 4.81203 1.67116 4.79524L 1.99618 4.41529C 1.89122 4.3255 1.75549 4.31015 1.65517 4.31015L 1.65517 4.81015ZM 1.67941 4.80199C 1.66855 4.79348 1.65584 4.77944 1.64676 4.76003C 1.63792 4.74112 1.63641 4.72544 1.63641 4.71805L 2.13641 4.71805C 2.13641 4.59946 2.08798 4.48698 1.98793 4.40853L 1.67941 4.80199ZM 1.63641 4.71805C 1.63641 4.70724 1.63874 4.69134 1.64676 4.67418C 1.65471 4.65719 1.6648 4.64629 1.67116 4.64085L 1.99618 5.0208C 2.08523 4.94463 2.13641 4.83835 2.13641 4.71805L 1.63641 4.71805ZM 1.67116 4.64085C 1.69079 4.62406 1.7055 4.62125 1.70142 4.62228C 1.69989 4.62267 1.69545 4.62364 1.6874 4.62448C 1.67941 4.62532 1.66879 4.62594 1.65517 4.62594L 1.65517 5.12594C 1.75549 5.12594 1.89122 5.11059 1.99618 5.0208L 1.67116 4.64085ZM 1.65517 4.62594L 0.227181 4.62594L 0.227181 5.12594L 1.65517 5.12594L 1.65517 4.62594ZM 0.227181 4.62594C 0.214495 4.62594 0.204709 4.62535 0.197474 4.62456C 0.190195 4.62378 0.186362 4.6229 0.185312 4.62262C 0.182493 4.6219 0.196625 4.62492 0.215246 4.64085L -0.109769 5.0208C -0.00587513 5.10968 0.12707 5.12594 0.227181 5.12594L 0.227181 4.62594ZM 0.215246 4.64085C 0.221607 4.64629 0.231702 4.65719 0.239648 4.67418C 0.247673 4.69134 0.25 4.70724 0.25 4.71805L -0.25 4.71805C -0.25 4.83835 -0.198821 4.94463 -0.109769 5.0208L 0.215246 4.64085ZM 0.25 4.71805C 0.25 4.72544 0.248491 4.74112 0.239648 4.76003C 0.230574 4.77944 0.217863 4.79348 0.207 4.80199L -0.101524 4.40853C -0.201569 4.48698 -0.25 4.59946 -0.25 4.71805L 0.25 4.71805ZM 0.215246 4.79524C 0.196625 4.81117 0.182493 4.81419 0.185312 4.81347C 0.186362 4.81319 0.190195 4.81231 0.197474 4.81153C 0.204709 4.81074 0.214495 4.81015 0.227181 4.81015L 0.227181 4.31015C 0.12707 4.31015 -0.00587513 4.32641 -0.109769 4.41529L 0.215246 4.79524ZM 0.227181 4.81015L 0.685598 4.81015L 0.685598 4.31015L 0.227181 4.31015L 0.227181 4.81015ZM 0.935598 4.56015L 0.935598 0.793233L 0.435598 0.793233L 0.435598 4.56015L 0.935598 4.56015ZM 0.685598 0.543233L 0.227181 0.543233L 0.227181 1.04323L 0.685598 1.04323L 0.685598 0.543233ZM 0.227181 0.543233C 0.199628 0.543233 0.185211 0.540781 0.180385 0.539637C 0.178346 0.539153 0.180176 0.539402 0.184715 0.541414C 0.189333 0.54346 0.197407 0.547626 0.207 0.555148L -0.101524 0.948611C 0.0012859 1.02923 0.130298 1.04323 0.227181 1.04323L 0.227181 0.543233ZM 0.215246 0.561903C 0.223123 0.56864 0.233369 0.580369 0.240949 0.597118C 0.248441 0.613675 0.25 0.627771 0.25 0.635338L -0.25 0.635338C -0.25 0.753575 -0.202289 0.862714 -0.109769 0.941857L 0.215246 0.561903ZM 0.25 0.635338C 0.25 0.642737 0.248491 0.658415 0.239648 0.677326C 0.230574 0.696731 0.217863 0.71077 0.207 0.719288L -0.101524 0.325825C -0.201569 0.404273 -0.25 0.516756 -0.25 0.635338L 0.25 0.635338ZM 0.215246 0.712533C 0.196625 0.728462 0.182493 0.731488 0.185312 0.730759C 0.186362 0.730487 0.190195 0.729605 0.197474 0.728819C 0.204709 0.728038 0.214495 0.727444 0.227181 0.727444L 0.227181 0.227444C 0.12707 0.227444 -0.00587513 0.243707 -0.109769 0.332579L 0.215246 0.712533ZM 0.227181 0.727444L 2.28803 0.727444L 2.28803 0.227444L 0.227181 0.227444L 0.227181 0.727444ZM 2.28803 0.727444C 2.67065 0.723891 2.94419 0.819004 3.19536 1.04236L 3.52269 0.664405C 3.19509 0.386509 2.75464 0.230996 2.28803 0.227444L 2.28803 0.727444ZM 3.19717 1.04392C 3.44699 1.25613 3.54716 1.47177 3.54716 1.69549L 4.04716 1.69549C 4.04716 1.29264 3.85524 0.946877 3.52088 0.662849L 3.19717 1.04392ZM 3.54716 1.69549C 3.54716 1.84729 3.48823 2.00281 3.33988 2.16696L 3.71083 2.50221C 3.92489 2.26536 4.04716 1.99482 4.04716 1.69549L 3.54716 1.69549ZM 3.33967 2.16719C 3.20471 2.3169 2.95399 2.46507 2.54967 2.59237L 2.69982 3.06929C 3.13931 2.93092 3.48901 2.74827 3.71104 2.50198L 3.33967 2.16719ZM 2.49022 3.04155C 2.72003 3.18761 2.90181 3.34059 3.06232 3.52287L 3.43667 3.19141C 3.25099 2.98272 3.01627 2.78482 2.75927 2.62011L 2.49022 3.04155ZM 3.06232 3.52287C 3.22582 3.70685 3.4911 4.09128 3.86949 4.69322L 4.29278 4.42708C 3.90849 3.81599 3.61935 3.39841 3.43667 3.19141L 3.06232 3.52287ZM 4.08114 4.81015L 4.34077 4.81015L 4.34077 4.31015L 4.08114 4.31015L 4.08114 4.81015ZM 4.34077 4.81015C 4.35346 4.81015 4.36324 4.81074 4.37048 4.81153C 4.37776 4.81231 4.38159 4.81319 4.38264 4.81347C 4.38546 4.81419 4.37133 4.81117 4.35271 4.79524L 4.67772 4.41529C 4.57383 4.32641 4.44088 4.31015 4.34077 4.31015L 4.34077 4.81015ZM 4.36095 4.80199C 4.35009 4.79348 4.33738 4.77944 4.3283 4.76003C 4.31946 4.74112 4.31795 4.72544 4.31795 4.71805L 4.81795 4.71805C 4.81795 4.59946 4.76952 4.48698 4.66947 4.40853L 4.36095 4.80199ZM 4.31795 4.71805C 4.31795 4.70724 4.32028 4.69134 4.3283 4.67418C 4.33625 4.65719 4.34634 4.64629 4.35271 4.64085L 4.67772 5.0208C 4.76677 4.94463 4.81795 4.83835 4.81795 4.71805L 4.31795 4.71805ZM 4.35271 4.64085C 4.37133 4.62492 4.38546 4.6219 4.38264 4.62262C 4.38159 4.6229 4.37776 4.62378 4.37048 4.62456C 4.36324 4.62535 4.35346 4.62594 4.34077 4.62594L 4.34077 5.12594C 4.44088 5.12594 4.57383 5.10968 4.67772 5.0208L 4.35271 4.64085ZM 4.34077 4.62594L 3.88641 4.62594L 3.88641 5.12594L 4.34077 5.12594L 4.34077 4.62594ZM 4.10046 4.74679C 3.67883 4.048 3.33857 3.55633 3.0835 3.29523L 2.72583 3.64462C 2.93594 3.85971 3.25017 4.30539 3.67236 5.00509L 4.10046 4.74679ZM 3.08452 3.29628C 2.83712 3.04171 2.53256 2.82862 2.21069 2.68491L 2.00838 3.14215C 2.28691 3.26412 2.51244 3.42195 2.72481 3.64357L 3.08452 3.29628ZM 2.10953 2.66353L 1.02637 2.66353L 1.02637 3.16353L 2.10953 3.16353L 2.10953 2.66353ZM 1.02637 2.84774L 1.95538 2.84774L 1.95538 2.34774L 1.02637 2.34774L 1.02637 2.84774ZM 1.95538 2.84774C 2.27586 2.84669 2.59332 2.78722 2.8588 2.67815L 2.66656 2.21658C 2.45063 2.30802 2.22989 2.3488 1.95538 2.34774L 1.95538 2.84774ZM 2.85788 2.67853C 3.12179 2.56984 3.34045 2.43135 3.48534 2.25008L 3.09478 1.93789C 3.02331 2.0273 2.89038 2.1244 2.66747 2.21621L 2.85788 2.67853ZM 3.48344 2.25243C 3.62166 2.08372 3.70639 1.89168 3.70639 1.68045L 3.20639 1.68045C 3.20639 1.74992 3.18023 1.83357 3.09668 1.93554L 3.48344 2.25243ZM 3.70639 1.68045C 3.70639 1.36822 3.53331 1.10373 3.27107 0.886442L 2.95206 1.27145C 3.14958 1.43511 3.20639 1.57163 3.20639 1.68045L 3.70639 1.68045ZM 3.27218 0.887374C 3.00737 0.670816 2.64834 0.546647 2.27992 0.543233L 2.27992 1.04323C 2.56599 1.03982 2.76139 1.10613 2.95094 1.27052L 3.27218 0.887374ZM 2.27992 0.543233L 1.02637 0.543233L 1.02637 1.04323L 2.27992 1.04323L 2.27992 0.543233ZM 0.776369 0.793233L 0.776369 2.59774L 1.27637 2.59774L 1.27637 0.793233L 0.776369 0.793233ZM 8.35548 4.87594L 8.35548 4.42105L 7.85548 4.42105L 7.85548 4.87594L 8.35548 4.87594ZM 7.95174 4.22391C 7.48935 4.58836 7.03829 4.75382 6.51927 4.75L 6.51927 5.25C 7.12533 5.24618 7.73175 5.02567 8.25921 4.61819L 7.95174 4.22391ZM 6.51927 4.75C 6.14778 4.75 5.89234 4.66344 5.72137 4.52178L 5.40236 4.90679C 5.69117 5.14609 6.074 5.25 6.51927 5.25L 6.51927 4.75ZM 5.72261 4.52281C 5.54423 4.37307 5.46704 4.20545 5.46704 4.00752L 4.96704 4.00752C 4.96704 4.36598 5.11974 4.66954 5.40113 4.90576L 5.72261 4.52281ZM 5.46704 4.00752C 5.46704 3.7991 5.56486 3.59992 5.82177 3.40649L 5.52102 3.00705C 5.17212 3.26975 4.96704 3.60441 4.96704 4.00752L 5.46704 4.00752ZM 5.82177 3.40649C 6.06369 3.22434 6.44347 3.11466 6.99797 3.11466L 6.99797 2.61466C 6.38953 2.61466 5.88492 2.73306 5.52102 3.00705L 5.82177 3.40649ZM 6.99797 3.11466C 7.14749 3.11455 7.30432 3.12381 7.48203 3.14326L 7.53622 2.64621C 7.34612 2.62556 7.16218 2.61477 6.99797 2.61466L 6.99797 3.11466ZM 7.48539 3.14361C 7.66322 3.1605 7.85082 3.18772 8.05936 3.22691L 8.15159 2.73549C 7.93282 2.69449 7.72285 2.66407 7.53287 2.64587L 7.48539 3.14361ZM 8.35548 2.9812L 8.35548 2.46992L 7.85548 2.46992L 7.85548 2.9812L 8.35548 2.9812ZM 8.35548 2.46992C 8.35548 2.19829 8.2139 1.97982 7.99435 1.81769L 7.69733 2.21991C 7.82396 2.31342 7.85548 2.3957 7.85548 2.46992L 8.35548 2.46992ZM 7.99435 1.81769C 7.75915 1.644 7.43656 1.57707 7.06694 1.57707L 7.06694 2.07707C 7.38968 2.07707 7.58635 2.13795 7.69733 2.21991L 7.99435 1.81769ZM 7.06694 1.57707C 6.76492 1.57707 6.36507 1.65698 5.87983 1.80179L 6.02281 2.28091C 6.49497 2.14001 6.83887 2.07707 7.06694 2.07707L 7.06694 1.57707ZM 5.88178 1.80122C 5.84128 1.81297 5.81299 1.82048 5.78971 1.8257C 5.77922 1.8281 5.77547 1.82886 5.77029 1.82963C 5.76597 1.8303 5.77242 1.82895 5.78499 1.82895L 5.78499 2.32895C 5.82768 2.32895 5.87166 2.31979 5.89994 2.3134C 5.93211 2.30608 5.97481 2.2948 6.02086 2.28149L 5.88178 1.80122ZM 5.78499 1.82895C 5.79297 1.82895 5.80419 1.83047 5.81642 1.83532C 5.82855 1.84014 5.83687 1.84634 5.84133 1.85046L 5.50147 2.2172C 5.57048 2.27536 5.69474 2.32449 5.78499 2.32895L 5.78499 1.82895ZM 5.84914 1.85802C 5.85685 1.86582 5.86486 1.8771 5.8704 1.8911C 5.87581 1.90479 5.87677 1.91576 5.87677 1.92105L 5.37677 1.92105C 5.37677 2.02716 5.41432 2.12944 5.49366 2.20965L 5.84914 1.85802ZM 5.87677 1.92105C 5.87677 1.92623 5.87591 1.93936 5.86906 1.9565C 5.86189 1.97445 5.85061 1.99055 5.83727 2.00292L 5.49742 1.63618C 5.41122 1.71606 5.37677 1.82071 5.37677 1.92105L 5.87677 1.92105ZM 5.84349 1.99696C 5.82105 2.01923 5.80501 2.02372 5.82301 2.01532C 5.83909 2.00766 5.85705 2.0008 5.89002 1.98978C 5.95999 1.96616 6.05483 1.93994 6.18488 1.90832L 6.06664 1.4225C 5.92894 1.45605 5.8135 1.4881 5.73067 1.51586C 5.68724 1.53052 5.64317 1.54764 5.61158 1.56222C 5.58191 1.57606 5.53256 1.60107 5.4912 1.64214L 5.84349 1.99696ZM 6.18628 1.90798C 6.59831 1.80497 6.88721 1.75668 7.08316 1.75752L 7.08316 1.25752C 6.84639 1.25835 6.49703 1.31533 6.06524 1.42285L 6.18628 1.90798ZM 7.08316 1.75752C 7.47708 1.75752 7.74884 1.84822 7.93043 1.99758L 8.24807 1.61144C 7.94825 1.36482 7.54929 1.25752 7.08316 1.25752L 7.08316 1.75752ZM 7.93164 1.99857C 8.12986 2.15955 8.2003 2.31551 8.2003 2.46992L 8.7003 2.46992C 8.7003 2.1281 8.53005 1.84045 8.24686 1.61045L 7.93164 1.99857ZM 8.2003 2.46992L 8.2003 4.56015L 8.7003 4.56015L 8.7003 2.46992L 8.2003 2.46992ZM 8.4503 4.81015L 8.90467 4.81015L 8.90467 4.31015L 8.4503 4.31015L 8.4503 4.81015ZM 8.90467 4.81015C 8.91828 4.81015 8.92891 4.81077 8.9369 4.81161C 8.94494 4.81245 8.94938 4.81342 8.95091 4.81381C 8.95499 4.81484 8.94029 4.81203 8.92066 4.79524L 9.24567 4.41529C 9.14071 4.3255 9.00498 4.31015 8.90467 4.31015L 8.90467 4.81015ZM 8.9289 4.80199C 8.91804 4.79348 8.90533 4.77944 8.89625 4.76003C 8.88741 4.74112 8.8859 4.72544 8.8859 4.71805L 9.3859 4.71805C 9.3859 4.59946 9.33747 4.48698 9.23743 4.40853L 8.9289 4.80199ZM 8.8859 4.71805C 8.8859 4.70724 8.88823 4.69134 8.89625 4.67418C 8.9042 4.65719 8.9143 4.64629 8.92066 4.64085L 9.24567 5.0208C 9.33472 4.94463 9.3859 4.83835 9.3859 4.71805L 8.8859 4.71805ZM 8.92066 4.64085C 8.94029 4.62406 8.95499 4.62125 8.95091 4.62228C 8.94938 4.62267 8.94494 4.62364 8.9369 4.62448C 8.92891 4.62532 8.91828 4.62594 8.90467 4.62594L 8.90467 5.12594C 9.00498 5.12594 9.14071 5.11059 9.24567 5.0208L 8.92066 4.64085ZM 8.90467 4.62594L 8.10548 4.62594L 8.10548 5.12594L 8.90467 5.12594L 8.90467 4.62594ZM 8.16997 3.06297C 8.00098 3.01805 7.81363 2.98329 7.62628 2.96209L 7.57047 3.45896C 7.74012 3.47786 7.89084 3.50576 8.04098 3.54605L 8.16997 3.06297ZM 7.62628 2.96209C 7.4405 2.94133 7.23857 2.93054 7.03448 2.93045L 7.03448 3.43045C 7.22525 3.43036 7.39926 3.43962 7.57047 3.45896L 7.62628 2.96209ZM 7.03448 2.93045C 6.50992 2.93045 6.06539 3.03486 5.72941 3.27367L 6.01907 3.68122C 6.24022 3.52403 6.56918 3.43045 7.03448 3.43045L 7.03448 2.93045ZM 5.73074 3.27273C 5.47202 3.45408 5.30781 3.69976 5.30781 4.00752L 5.80781 4.00752C 5.80781 3.90425 5.85455 3.79655 6.01774 3.68216L 5.73074 3.27273ZM 5.30781 4.00752C 5.30781 4.27978 5.42674 4.50897 5.63902 4.68235L 5.9553 4.2951C 5.84845 4.20782 5.80781 4.11621 5.80781 4.00752L 5.30781 4.00752ZM 5.64061 4.68364C 5.86422 4.86322 6.16419 4.93421 6.50304 4.93421L 6.50304 4.43421C 6.22526 4.43421 6.05465 4.37487 5.95371 4.2938L 5.64061 4.68364ZM 6.50304 4.93421C 6.82214 4.93303 7.14482 4.86918 7.42098 4.75235L 7.22406 4.29276C 6.99716 4.39148 6.77353 4.4354 6.50304 4.43421L 6.50304 4.93421ZM 7.422 4.75191C 7.69636 4.63181 7.99055 4.43595 8.27161 4.18682L 7.93935 3.81318C 7.68491 4.04024 7.45713 4.19275 7.22303 4.2932L 7.422 4.75191ZM 8.35548 4L 8.35548 3.30451L 7.85548 3.30451L 7.85548 4L 8.35548 4ZM 13.535 0.157895L 13.535 4.56015L 14.035 4.56015L 14.035 0.157895L 13.535 0.157895ZM 13.785 4.81015L 14.2394 4.81015L 14.2394 4.31015L 13.785 4.31015L 13.785 4.81015ZM 14.2394 4.81015C 14.253 4.81015 14.2636 4.81077 14.2716 4.81161C 14.2796 4.81245 14.2841 4.81342 14.2856 4.81381C 14.2897 4.81484 14.275 4.81203 14.2553 4.79524L 14.5804 4.41529C 14.4754 4.3255 14.3397 4.31015 14.2394 4.31015L 14.2394 4.81015ZM 14.2636 4.80199C 14.2527 4.79348 14.24 4.77944 14.2309 4.76003C 14.2221 4.74112 14.2206 4.72544 14.2206 4.71805L 14.7206 4.71805C 14.7206 4.59946 14.6722 4.48698 14.5721 4.40853L 14.2636 4.80199ZM 14.2206 4.71805C 14.2206 4.70724 14.2229 4.69134 14.2309 4.67418C 14.2389 4.65719 14.249 4.64629 14.2553 4.64085L 14.5804 5.0208C 14.6694 4.94463 14.7206 4.83835 14.7206 4.71805L 14.2206 4.71805ZM 14.2553 4.64085C 14.275 4.62406 14.2897 4.62125 14.2856 4.62228C 14.2841 4.62267 14.2796 4.62364 14.2716 4.62448C 14.2636 4.62532 14.253 4.62594 14.2394 4.62594L 14.2394 5.12594C 14.3397 5.12594 14.4754 5.11059 14.5804 5.0208L 14.2553 4.64085ZM 14.2394 4.62594L 13.4402 4.62594L 13.4402 5.12594L 14.2394 5.12594L 14.2394 4.62594ZM 13.6902 4.87594L 13.6902 4.24812L 13.1902 4.24812L 13.1902 4.87594L 13.6902 4.87594ZM 13.2438 4.09342C 12.8936 4.53789 12.4628 4.75 11.9351 4.75L 11.9351 5.25C 12.6244 5.25 13.197 4.96086 13.6365 4.40282L 13.2438 4.09342ZM 11.9351 4.75C 11.6578 4.75193 11.4205 4.69153 11.1636 4.5535L 10.9297 4.99537C 11.2407 5.15809 11.5958 5.24807 11.9351 5.25L 11.9351 4.75ZM 11.166 4.55479C 10.9136 4.4202 10.7389 4.25039 10.5928 3.99739L 10.1618 4.25073C 10.3456 4.55914 10.6172 4.82291 10.9273 4.99409L 11.166 4.55479ZM 10.5937 3.99894C 10.4454 3.7463 10.3815 3.51983 10.3839 3.25564L 9.88387 3.25564C 9.8862 3.58794 9.98462 3.94042 10.1608 4.24918L 10.5937 3.99894ZM 10.3839 3.25564C 10.3815 2.98894 10.4452 2.76292 10.5932 2.51318L 10.1613 2.26126C 9.98481 2.56791 9.8862 2.92083 9.88387 3.25564L 10.3839 3.25564ZM 10.5928 2.51389C 10.7389 2.26089 10.9136 2.09108 11.166 1.95649L 10.9273 1.51719C 10.6172 1.68837 10.3456 1.95214 10.1618 2.26054L 10.5928 2.51389ZM 11.1652 1.95697C 11.4217 1.8168 11.6595 1.75554 11.9391 1.75752L 11.9391 1.25752C 11.5968 1.25949 11.2396 1.35112 10.9281 1.51672L 11.1652 1.95697ZM 11.9391 1.75752C 12.4518 1.75752 12.8831 1.96845 13.2458 2.41668L 13.6345 2.10212C 13.1859 1.54784 12.6165 1.25752 11.9391 1.25752L 11.9391 1.75752ZM 13.6902 2.2594L 13.6902 0.477444L 13.1902 0.477444L 13.1902 2.2594L 13.6902 2.2594ZM 13.4402 0.227444L 12.9858 0.227444L 12.9858 0.727444L 13.4402 0.727444L 13.4402 0.227444ZM 12.9858 0.227444C 12.9722 0.227444 12.9616 0.226827 12.9536 0.225989C 12.9455 0.225145 12.9411 0.224173 12.9396 0.223787C 12.9355 0.222756 12.9502 0.225563 12.9698 0.242354L 12.6448 0.622308C 12.7498 0.712091 12.8855 0.727444 12.9858 0.727444L 12.9858 0.227444ZM 12.9698 0.242354C 12.9777 0.249091 12.9879 0.26082 12.9955 0.277569C 13.003 0.294126 13.0046 0.308222 13.0046 0.315789L 12.5046 0.315789C 12.5046 0.434026 12.5523 0.543165 12.6448 0.622308L 12.9698 0.242354ZM 13.0046 0.315789C 13.0046 0.326599 13.0022 0.342496 12.9942 0.359657C 12.9863 0.376649 12.9762 0.387544 12.9698 0.392984L 12.6448 0.0130306C 12.5557 0.0892059 12.5046 0.195486 12.5046 0.315789L 13.0046 0.315789ZM 12.9698 0.392984C 12.9502 0.409775 12.9355 0.412583 12.9396 0.411552C 12.9411 0.411165 12.9455 0.410194 12.9536 0.40935C 12.9616 0.408512 12.9722 0.407895 12.9858 0.407895L 12.9858 -0.0921053C 12.8855 -0.0921053 12.7498 -0.0767524 12.6448 0.0130306L 12.9698 0.392984ZM 12.9858 0.407895L 13.785 0.407895L 13.785 -0.0921053L 12.9858 -0.0921053L 12.9858 0.407895ZM 13.6902 3.25564C 13.6902 2.7857 13.5157 2.38163 13.1736 2.05879L 12.8304 2.42241C 13.0726 2.65095 13.1902 2.92357 13.1902 3.25564L 13.6902 3.25564ZM 13.1736 2.05879C 12.8442 1.75404 12.4093 1.58151 11.9594 1.57707L 11.9594 2.07707C 12.3155 2.07263 12.5756 2.17578 12.8304 2.42241L 13.1736 2.05879ZM 11.9594 1.57707C 11.507 1.58148 11.0707 1.75395 10.7412 2.05879L 11.0844 2.42241C 11.339 2.17587 11.6005 2.07266 11.9594 2.07707L 11.9594 1.57707ZM 10.7412 2.05879C 10.3991 2.38163 10.2246 2.7857 10.2246 3.25564L 10.7246 3.25564C 10.7246 2.92357 10.8422 2.65095 11.0844 2.42241L 10.7412 2.05879ZM 10.2246 3.25564C 10.2246 3.72349 10.3994 4.12698 10.7404 4.45171L 11.0852 4.08965C 10.842 3.85798 10.7246 3.58478 10.7246 3.25564L 10.2246 3.25564ZM 10.7412 4.45248C 11.0707 4.75733 11.507 4.9298 11.9594 4.93421L 11.9594 4.43421C 11.6005 4.43862 11.339 4.33541 11.0844 4.08887L 10.7412 4.45248ZM 11.9594 4.93421C 12.4093 4.92977 12.8442 4.75724 13.1736 4.45248L 12.8304 4.08887C 12.5756 4.3355 12.3155 4.43865 11.9594 4.43421L 11.9594 4.93421ZM 13.1744 4.45171C 13.5154 4.12698 13.6902 3.72349 13.6902 3.25564L 13.1902 3.25564C 13.1902 3.58478 13.0728 3.85798 12.8296 4.08965L 13.1744 4.45171ZM 17.0238 0L 17.0238 0.815789L 17.5238 0.815789L 17.5238 0L 17.0238 0ZM 17.2738 0.565789L 16.7708 0.565789L 16.7708 1.06579L 17.2738 1.06579L 17.2738 0.565789ZM 17.0208 0.815789L 17.0208 0L 16.5208 0L 16.5208 0.815789L 17.0208 0.815789ZM 16.7708 0.25L 17.2738 0.25L 17.2738 -0.25L 16.7708 -0.25L 16.7708 0.25ZM 17.036 1.6203L 17.036 4.56015L 17.536 4.56015L 17.536 1.6203L 17.036 1.6203ZM 17.286 4.81015L 18.6247 4.81015L 18.6247 4.31015L 17.286 4.31015L 17.286 4.81015ZM 18.6247 4.81015C 18.6384 4.81015 18.649 4.81077 18.657 4.81161C 18.665 4.81245 18.6695 4.81342 18.671 4.81381C 18.6751 4.81484 18.6604 4.81203 18.6407 4.79524L 18.9658 4.41529C 18.8608 4.3255 18.7251 4.31015 18.6247 4.31015L 18.6247 4.81015ZM 18.649 4.80199C 18.6381 4.79348 18.6254 4.77944 18.6163 4.76003C 18.6075 4.74112 18.606 4.72544 18.606 4.71805L 19.106 4.71805C 19.106 4.59946 19.0576 4.48698 18.9575 4.40853L 18.649 4.80199ZM 18.606 4.71805C 18.606 4.70724 18.6083 4.69134 18.6163 4.67418C 18.6243 4.65719 18.6344 4.64629 18.6407 4.64085L 18.9658 5.0208C 19.0548 4.94463 19.106 4.83835 19.106 4.71805L 18.606 4.71805ZM 18.6407 4.64085C 18.6604 4.62406 18.6751 4.62125 18.671 4.62228C 18.6695 4.62267 18.665 4.62364 18.657 4.62448C 18.649 4.62532 18.6384 4.62594 18.6247 4.62594L 18.6247 5.12594C 18.7251 5.12594 18.8608 5.11059 18.9658 5.0208L 18.6407 4.64085ZM 18.6247 4.62594L 15.6065 4.62594L 15.6065 5.12594L 18.6247 5.12594L 18.6247 4.62594ZM 15.6065 4.62594C 15.5938 4.62594 15.584 4.62535 15.5768 4.62456C 15.5695 4.62378 15.5657 4.6229 15.5646 4.62262C 15.5618 4.6219 15.5759 4.62492 15.5946 4.64085L 15.2695 5.0208C 15.3734 5.10968 15.5064 5.12594 15.6065 5.12594L 15.6065 4.62594ZM 15.5946 4.64085C 15.6009 4.64629 15.611 4.65719 15.619 4.67418C 15.627 4.69134 15.6293 4.70724 15.6293 4.71805L 15.1293 4.71805C 15.1293 4.83835 15.1805 4.94463 15.2695 5.0208L 15.5946 4.64085ZM 15.6293 4.71805C 15.6293 4.72544 15.6278 4.74112 15.619 4.76003C 15.6099 4.77944 15.5972 4.79348 15.5863 4.80199L 15.2778 4.40853C 15.1777 4.48698 15.1293 4.59946 15.1293 4.71805L 15.6293 4.71805ZM 15.5946 4.79524C 15.5759 4.81117 15.5618 4.81419 15.5646 4.81347C 15.5657 4.81319 15.5695 4.81231 15.5768 4.81153C 15.584 4.81074 15.5938 4.81015 15.6065 4.81015L 15.6065 4.31015C 15.5064 4.31015 15.3734 4.32641 15.2695 4.41529L 15.5946 4.79524ZM 15.6065 4.81015L 16.9452 4.81015L 16.9452 4.31015L 15.6065 4.31015L 15.6065 4.81015ZM 17.1952 4.56015L 17.1952 1.93985L 16.6952 1.93985L 16.6952 4.56015L 17.1952 4.56015ZM 16.9452 1.68985L 15.9513 1.68985L 15.9513 2.18985L 16.9452 2.18985L 16.9452 1.68985ZM 15.9513 1.68985C 15.9252 1.68985 15.9116 1.68733 15.9071 1.68619C 15.9028 1.6851 15.9131 1.68688 15.9283 1.69898L 15.6173 2.0905C 15.7207 2.17257 15.8487 2.18985 15.9513 2.18985L 15.9513 1.68985ZM 15.9353 1.70476C 15.9417 1.7102 15.9518 1.72109 15.9597 1.73809C 15.9678 1.75525 15.9701 1.77115 15.9701 1.78195L 15.4701 1.78195C 15.4701 1.90226 15.5213 2.00854 15.6103 2.08471L 15.9353 1.70476ZM 15.9701 1.78195C 15.9701 1.78952 15.9685 1.80362 15.961 1.82018C 15.9535 1.83692 15.9432 1.84865 15.9353 1.85539L 15.6103 1.47544C 15.5178 1.55458 15.4701 1.66372 15.4701 1.78195L 15.9701 1.78195ZM 15.9353 1.85539C 15.9157 1.87218 15.901 1.87499 15.9051 1.87396C 15.9066 1.87357 15.911 1.8726 15.9191 1.87176C 15.9271 1.87092 15.9377 1.8703 15.9513 1.8703L 15.9513 1.3703C 15.851 1.3703 15.7153 1.38565 15.6103 1.47544L 15.9353 1.85539ZM 15.9513 1.8703L 17.286 1.8703L 17.286 1.3703L 15.9513 1.3703L 15.9513 1.8703ZM 23.75 3.25564C 23.75 3.66271 23.5959 4.00794 23.2716 4.30412L 23.6088 4.67332C 24.0309 4.2878 24.25 3.81098 24.25 3.25564L 23.75 3.25564ZM 23.2709 4.30473C 22.9382 4.61694 22.5768 4.75412 22.0974 4.75L 22.0974 5.25C 22.6673 5.24588 23.2011 5.04221 23.6094 4.67271L 23.2709 4.30473ZM 22.0974 4.75C 21.6123 4.75408 21.2482 4.6168 20.9157 4.30473L 20.5772 4.67271C 20.9857 5.04234 21.5223 5.24592 22.0974 5.25L 22.0974 4.75ZM 20.9164 4.30535C 20.5937 4.00636 20.4407 3.66052 20.4407 3.25564L 19.9407 3.25564C 19.9407 3.80815 20.1581 4.28436 20.5765 4.67209L 20.9164 4.30535ZM 20.4407 3.25564C 20.4407 2.84793 20.594 2.50253 20.9157 2.20655L 20.5772 1.83857C 20.1579 2.22429 19.9407 2.70094 19.9407 3.25564L 20.4407 3.25564ZM 20.9164 2.20593C 21.2489 1.89157 21.6126 1.75338 22.0974 1.75752L 22.0974 1.25752C 21.522 1.26165 20.9851 1.46683 20.5765 1.83919L 20.9164 2.20593ZM 22.0974 1.75752C 22.5768 1.75339 22.9382 1.89058 23.2709 2.20279L 23.6094 1.83481C 23.2011 1.46531 22.6673 1.26164 22.0974 1.25752L 22.0974 1.75752ZM 23.2716 2.2034C 23.5956 2.49929 23.75 2.84566 23.75 3.25564L 24.25 3.25564C 24.25 2.6982 24.0312 2.22001 23.6088 1.8342L 23.2716 2.2034ZM 23.9052 3.25564C 23.9052 2.78587 23.7201 2.38272 23.365 2.05949L 23.0285 2.42924C 23.2846 2.66239 23.4052 2.93343 23.4052 3.25564L 23.9052 3.25564ZM 23.3659 2.06023C 23.025 1.75333 22.571 1.58114 22.0933 1.57707L 22.0933 2.07707C 22.4811 2.07299 22.7627 2.17901 23.0276 2.42849L 23.3659 2.06023ZM 22.0933 1.57707C 21.6154 1.58118 21.1601 1.7547 20.8167 2.064L 21.1549 2.43224C 21.4227 2.18014 21.7057 2.07295 22.0933 2.07707L 22.0933 1.57707ZM 20.8167 2.06399C 20.4649 2.38712 20.2814 2.78866 20.2814 3.25564L 20.7814 3.25564C 20.7814 2.93565 20.9009 2.66552 21.1549 2.43225L 20.8167 2.06399ZM 20.2814 3.25564C 20.2814 3.72051 20.4651 4.12151 20.8159 4.44653L 21.1557 4.07979C 20.9006 3.8434 20.7814 3.57273 20.7814 3.25564L 20.2814 3.25564ZM 20.8167 4.44728C 21.1601 4.75658 21.6154 4.9301 22.0933 4.93421L 22.0933 4.43421C 21.7057 4.43832 21.4227 4.33114 21.1549 4.07904L 20.8167 4.44728ZM 22.0933 4.93421C 22.571 4.93014 23.025 4.75795 23.3659 4.45105L 23.0276 4.08279C 22.7627 4.33227 22.4811 4.43828 22.0933 4.43421L 22.0933 4.93421ZM 23.3659 4.45104C 23.7199 4.1259 23.9052 3.72331 23.9052 3.25564L 23.4052 3.25564C 23.4052 3.57494 23.2849 3.84653 23.0276 4.0828L 23.3659 4.45104Z"/>
<path id="path15_stroke" d="M 0 0L 26 0L 26 -1L 0 -1L 0 0Z"/>
<path id="path16_fill" d="M 21 10.5C 21 16.299 16.299 21 10.5 21C 4.70101 21 0 16.299 0 10.5C 0 4.70101 4.70101 0 10.5 0C 16.299 0 21 4.70101 21 10.5Z"/>
<path id="path17_fill" d="M 13 6.5C 13 10.0899 10.0899 13 6.5 13C 2.91015 13 0 10.0899 0 6.5C 0 2.91015 2.91015 0 6.5 0C 10.0899 0 13 2.91015 13 6.5Z"/>
<path id="path18_fill" d="M 11 5.5C 11 8.53757 8.53757 11 5.5 11C 2.46243 11 0 8.53757 0 5.5C 0 2.46243 2.46243 0 5.5 0C 8.53757 0 11 2.46243 11 5.5Z"/>
<path id="path19_stroke" d="M 0 0L 3 0L 3 -0.5L 0 -0.5L 0 0Z"/>
<path id="path20_fill" d="M 7 3.5C 7 5.433 5.433 7 3.5 7C 1.567 7 0 5.433 0 3.5C 0 1.567 1.567 0 3.5 0C 5.433 0 7 1.567 7 3.5Z"/>
<path id="path21_fill" d="M 4.33333 2.16667C 4.33333 3.36328 3.36328 4.33333 2.16667 4.33333C 0.97005 4.33333 0 3.36328 0 2.16667C 0 0.97005 0.97005 0 2.16667 0C 3.36328 0 4.33333 0.97005 4.33333 2.16667Z"/>
<path id="path22_fill" d="M 3.66667 1.83333C 3.66667 2.84586 2.84586 3.66667 1.83333 3.66667C 0.820811 3.66667 0 2.84586 0 1.83333C 0 0.820811 0.820811 0 1.83333 0C 2.84586 0 3.66667 0.820811 3.66667 1.83333Z"/>
<path id="path23_stroke" d="M 0 0L 1 0L 1 -0.5L 0 -0.5L 0 0Z"/>
</defs>
</svg>
